<mxfile host="app.diagrams.net" modified="2023-07-12T22:28:23.336Z" agent="Mozilla/5.0 (Windows NT 10.0; Win64; x64) AppleWebKit/537.36 (KHTML, like Gecko) Chrome/114.0.0.0 Safari/537.36" etag="0DjXjyzcV-AI41jzxRRS" version="21.6.2" type="github">
  <diagram id="C5RBs43oDa-KdzZeNtuy" name="Page-1">
    <mxGraphModel dx="2074" dy="756" grid="1" gridSize="10" guides="1" tooltips="1" connect="1" arrows="1" fold="1" page="1" pageScale="1" pageWidth="827" pageHeight="1169" math="0" shadow="0">
      <root>
        <mxCell id="WIyWlLk6GJQsqaUBKTNV-0" />
        <mxCell id="WIyWlLk6GJQsqaUBKTNV-1" parent="WIyWlLk6GJQsqaUBKTNV-0" />
        <mxCell id="utAZHgmwh6aTqB7p7TDN-13" style="edgeStyle=orthogonalEdgeStyle;rounded=0;orthogonalLoop=1;jettySize=auto;html=1;entryX=-0.008;entryY=0.588;entryDx=0;entryDy=0;entryPerimeter=0;" edge="1" parent="WIyWlLk6GJQsqaUBKTNV-1" source="utAZHgmwh6aTqB7p7TDN-0" target="utAZHgmwh6aTqB7p7TDN-9">
          <mxGeometry relative="1" as="geometry" />
        </mxCell>
        <mxCell id="utAZHgmwh6aTqB7p7TDN-14" style="edgeStyle=orthogonalEdgeStyle;rounded=0;orthogonalLoop=1;jettySize=auto;html=1;entryX=0;entryY=0.5;entryDx=0;entryDy=0;" edge="1" parent="WIyWlLk6GJQsqaUBKTNV-1" source="utAZHgmwh6aTqB7p7TDN-0" target="utAZHgmwh6aTqB7p7TDN-11">
          <mxGeometry relative="1" as="geometry" />
        </mxCell>
        <mxCell id="utAZHgmwh6aTqB7p7TDN-0" value="Usuário" style="shape=umlActor;verticalLabelPosition=bottom;verticalAlign=top;html=1;outlineConnect=0;" vertex="1" parent="WIyWlLk6GJQsqaUBKTNV-1">
          <mxGeometry x="160" y="420" width="30" height="60" as="geometry" />
        </mxCell>
        <mxCell id="utAZHgmwh6aTqB7p7TDN-3" value="Cadastrar Comandos/Ações" style="ellipse;whiteSpace=wrap;html=1;" vertex="1" parent="WIyWlLk6GJQsqaUBKTNV-1">
          <mxGeometry x="330" y="130" width="120" height="80" as="geometry" />
        </mxCell>
        <mxCell id="utAZHgmwh6aTqB7p7TDN-4" value="Cadastrar Usuários e permissões" style="ellipse;whiteSpace=wrap;html=1;" vertex="1" parent="WIyWlLk6GJQsqaUBKTNV-1">
          <mxGeometry x="330" y="240" width="120" height="80" as="geometry" />
        </mxCell>
        <mxCell id="utAZHgmwh6aTqB7p7TDN-9" value="Gravar a voz dos usuários" style="ellipse;whiteSpace=wrap;html=1;" vertex="1" parent="WIyWlLk6GJQsqaUBKTNV-1">
          <mxGeometry x="330" y="350" width="120" height="80" as="geometry" />
        </mxCell>
        <mxCell id="utAZHgmwh6aTqB7p7TDN-11" value="Cadastrar Celular e vincular com usuário" style="ellipse;whiteSpace=wrap;html=1;" vertex="1" parent="WIyWlLk6GJQsqaUBKTNV-1">
          <mxGeometry x="330" y="470" width="120" height="80" as="geometry" />
        </mxCell>
        <mxCell id="utAZHgmwh6aTqB7p7TDN-16" style="edgeStyle=orthogonalEdgeStyle;rounded=0;orthogonalLoop=1;jettySize=auto;html=1;" edge="1" parent="WIyWlLk6GJQsqaUBKTNV-1" source="utAZHgmwh6aTqB7p7TDN-15" target="utAZHgmwh6aTqB7p7TDN-3">
          <mxGeometry relative="1" as="geometry" />
        </mxCell>
        <mxCell id="utAZHgmwh6aTqB7p7TDN-17" style="edgeStyle=orthogonalEdgeStyle;rounded=0;orthogonalLoop=1;jettySize=auto;html=1;entryX=1;entryY=0.5;entryDx=0;entryDy=0;" edge="1" parent="WIyWlLk6GJQsqaUBKTNV-1" source="utAZHgmwh6aTqB7p7TDN-15" target="utAZHgmwh6aTqB7p7TDN-4">
          <mxGeometry relative="1" as="geometry" />
        </mxCell>
        <mxCell id="utAZHgmwh6aTqB7p7TDN-15" value="Operador" style="shape=umlActor;verticalLabelPosition=bottom;verticalAlign=top;html=1;outlineConnect=0;" vertex="1" parent="WIyWlLk6GJQsqaUBKTNV-1">
          <mxGeometry x="630" y="190" width="30" height="60" as="geometry" />
        </mxCell>
        <mxCell id="utAZHgmwh6aTqB7p7TDN-18" value="Ronaldo Ottoni Borges de Carvalho. RU: 4385395" style="text;html=1;strokeColor=#d79b00;fillColor=#ffe6cc;align=center;verticalAlign=middle;whiteSpace=wrap;rounded=0;" vertex="1" parent="WIyWlLk6GJQsqaUBKTNV-1">
          <mxGeometry x="282" y="70" width="216" height="30" as="geometry" />
        </mxCell>
      </root>
    </mxGraphModel>
  </diagram>
</mxfile>
